<mxfile host="65bd71144e">
    <diagram id="36cIujaJvElhg37jnAwS" name="Architecture">
        <mxGraphModel dx="1197" dy="635" grid="1" gridSize="10" guides="1" tooltips="1" connect="1" arrows="1" fold="1" page="1" pageScale="1" pageWidth="850" pageHeight="1100" background="#283618" math="0" shadow="0">
            <root>
                <mxCell id="0"/>
                <mxCell id="1" parent="0"/>
                <mxCell id="SVoFsf67C7dcWADC0aFI-27" value="" style="rounded=0;fontColor=#FEFAE0;align=center;noLabel=1;html=1;fillColor=none;strokeColor=#DDA15E;" parent="1" vertex="1">
                    <mxGeometry x="254.92000000000002" y="425" width="210" height="210" as="geometry"/>
                </mxCell>
                <mxCell id="SVoFsf67C7dcWADC0aFI-26" style="edgeStyle=orthogonalEdgeStyle;rounded=0;orthogonalLoop=1;jettySize=auto;html=1;exitX=0.5;exitY=1;exitDx=0;exitDy=0;strokeWidth=3;entryX=0.5;entryY=0;entryDx=0;entryDy=0;labelBackgroundColor=#283618;strokeColor=#DDA15E;fontColor=#FEFAE0;" parent="1" source="9Cxg7NkrZJupRny38_UN-36" target="9Cxg7NkrZJupRny38_UN-43" edge="1">
                    <mxGeometry relative="1" as="geometry">
                        <mxPoint x="614.67" y="423" as="targetPoint"/>
                    </mxGeometry>
                </mxCell>
                <mxCell id="9Cxg7NkrZJupRny38_UN-36" value="" style="rounded=0;fontColor=#FEFAE0;align=center;noLabel=1;html=1;fillColor=none;strokeColor=#DDA15E;" parent="1" vertex="1">
                    <mxGeometry x="511.42" y="165" width="210" height="210" as="geometry"/>
                </mxCell>
                <mxCell id="kACZH9-kuLG_nCIap0BK-29" style="edgeStyle=orthogonalEdgeStyle;rounded=0;orthogonalLoop=1;jettySize=auto;html=1;exitX=1;exitY=0.5;exitDx=0;exitDy=0;entryX=0;entryY=0.5;entryDx=0;entryDy=0;strokeWidth=3;labelBackgroundColor=#283618;strokeColor=#DDA15E;fontColor=#FEFAE0;" parent="1" source="9Cxg7NkrZJupRny38_UN-42" target="9Cxg7NkrZJupRny38_UN-36" edge="1">
                    <mxGeometry relative="1" as="geometry"/>
                </mxCell>
                <mxCell id="9Cxg7NkrZJupRny38_UN-42" value="" style="rounded=0;fontColor=#FEFAE0;align=center;noLabel=1;html=1;fillColor=none;strokeColor=#DDA15E;" parent="1" vertex="1">
                    <mxGeometry x="260.73" y="165" width="210" height="210" as="geometry"/>
                </mxCell>
                <mxCell id="9Cxg7NkrZJupRny38_UN-43" value="" style="rounded=0;fontColor=#FEFAE0;align=center;noLabel=1;html=1;fillColor=none;strokeColor=#DDA15E;" parent="1" vertex="1">
                    <mxGeometry x="511.42" y="425" width="210" height="210" as="geometry"/>
                </mxCell>
                <mxCell id="9Cxg7NkrZJupRny38_UN-11" value="&lt;font color=&quot;#f0f0f0&quot;&gt;denormalizers&lt;/font&gt;" style="sketch=0;points=[[0,0,0],[0.25,0,0],[0.5,0,0],[0.75,0,0],[1,0,0],[0,1,0],[0.25,1,0],[0.5,1,0],[0.75,1,0],[1,1,0],[0,0.25,0],[0,0.5,0],[0,0.75,0],[1,0.25,0],[1,0.5,0],[1,0.75,0]];outlineConnect=0;fontColor=#FEFAE0;gradientDirection=north;fillColor=#BC6C25;strokeColor=#DDA15E;dashed=0;verticalLabelPosition=bottom;verticalAlign=top;align=center;html=1;fontSize=12;fontStyle=0;aspect=fixed;shape=mxgraph.aws4.resourceIcon;resIcon=mxgraph.aws4.lambda;rounded=0;" parent="1" vertex="1">
                    <mxGeometry x="579.61" y="231" width="78" height="78" as="geometry"/>
                </mxCell>
                <mxCell id="9Cxg7NkrZJupRny38_UN-40" style="edgeStyle=orthogonalEdgeStyle;rounded=0;orthogonalLoop=1;jettySize=auto;html=1;fontColor=#FEFAE0;exitX=0;exitY=0.5;exitDx=0;exitDy=0;strokeWidth=3;labelBackgroundColor=#283618;strokeColor=#DDA15E;startArrow=classic;startFill=1;endArrow=none;endFill=0;" parent="1" source="9Cxg7NkrZJupRny38_UN-43" edge="1">
                    <mxGeometry relative="1" as="geometry">
                        <mxPoint x="466.67" y="530" as="targetPoint"/>
                        <Array as="points"/>
                    </mxGeometry>
                </mxCell>
                <mxCell id="9Cxg7NkrZJupRny38_UN-14" value="&lt;font color=&quot;#ffffff&quot;&gt;Amazon QuickSight&lt;/font&gt;" style="sketch=0;points=[[0,0,0],[0.25,0,0],[0.5,0,0],[0.75,0,0],[1,0,0],[0,1,0],[0.25,1,0],[0.5,1,0],[0.75,1,0],[1,1,0],[0,0.25,0],[0,0.5,0],[0,0.75,0],[1,0.25,0],[1,0.5,0],[1,0.75,0]];outlineConnect=0;fontColor=#FEFAE0;gradientDirection=north;fillColor=#BC6C25;strokeColor=#DDA15E;dashed=0;verticalLabelPosition=bottom;verticalAlign=top;align=center;html=1;fontSize=12;fontStyle=0;aspect=fixed;shape=mxgraph.aws4.resourceIcon;resIcon=mxgraph.aws4.quicksight;rounded=0;" parent="1" vertex="1">
                    <mxGeometry x="320.9200000000001" y="491" width="78" height="78" as="geometry"/>
                </mxCell>
                <mxCell id="9Cxg7NkrZJupRny38_UN-16" value="CONSUME/VISUALIZE" style="text;html=1;strokeColor=none;fillColor=none;align=center;verticalAlign=middle;whiteSpace=wrap;rounded=0;fontColor=#FEFAE0;" parent="1" vertex="1">
                    <mxGeometry x="295.73" y="466" width="140" height="20" as="geometry"/>
                </mxCell>
                <mxCell id="9Cxg7NkrZJupRny38_UN-17" value="&lt;meta charset=&quot;utf-8&quot;&gt;ANALYZE" style="text;whiteSpace=wrap;html=1;fontColor=#FEFAE0;rounded=0;" parent="1" vertex="1">
                    <mxGeometry x="587.4200000000001" y="461" width="58" height="30" as="geometry"/>
                </mxCell>
                <mxCell id="9Cxg7NkrZJupRny38_UN-18" value="&lt;meta charset=&quot;utf-8&quot;&gt;COLLECT" style="text;whiteSpace=wrap;html=1;fontColor=#FEFAE0;align=center;rounded=0;" parent="1" vertex="1">
                    <mxGeometry x="326.69" y="197.5" width="69" height="30" as="geometry"/>
                </mxCell>
                <mxCell id="SVoFsf67C7dcWADC0aFI-16" style="edgeStyle=orthogonalEdgeStyle;rounded=0;orthogonalLoop=1;jettySize=auto;html=1;strokeWidth=3;labelBackgroundColor=#283618;strokeColor=#DDA15E;fontColor=#FEFAE0;" parent="1" source="9Cxg7NkrZJupRny38_UN-26" target="SVoFsf67C7dcWADC0aFI-4" edge="1">
                    <mxGeometry relative="1" as="geometry"/>
                </mxCell>
                <mxCell id="9Cxg7NkrZJupRny38_UN-26" value="" style="sketch=0;aspect=fixed;html=1;points=[];align=center;image;fontSize=12;image=img/lib/mscae/Input.svg;fontColor=#FEFAE0;labelBackgroundColor=#283618;fillColor=#BC6C25;strokeColor=#DDA15E;rounded=0;" parent="1" vertex="1">
                    <mxGeometry x="127" y="110" width="50" height="45" as="geometry"/>
                </mxCell>
                <mxCell id="9Cxg7NkrZJupRny38_UN-31" value="&lt;font color=&quot;#ff0000&quot; style=&quot;font-size: 9px&quot;&gt;&lt;b&gt;DATA CONSUMERS / DATA&amp;nbsp; PREPARATION&lt;/b&gt;&lt;/font&gt;" style="text;html=1;strokeColor=none;fillColor=none;align=center;verticalAlign=middle;whiteSpace=wrap;rounded=0;fontColor=#FEFAE0;" parent="1" vertex="1">
                    <mxGeometry x="511.42" y="175" width="214.38" height="20" as="geometry"/>
                </mxCell>
                <mxCell id="9Cxg7NkrZJupRny38_UN-41" value="&lt;font color=&quot;#ff0000&quot; style=&quot;font-size: 9px&quot;&gt;INGEST DATA&lt;/font&gt;" style="text;html=1;strokeColor=none;fillColor=none;align=center;verticalAlign=middle;whiteSpace=wrap;rounded=0;fontColor=#FEFAE0;" parent="1" vertex="1">
                    <mxGeometry x="292.92" y="171.5" width="134" height="20" as="geometry"/>
                </mxCell>
                <mxCell id="9Cxg7NkrZJupRny38_UN-44" value="&lt;font color=&quot;#ff0000&quot; style=&quot;font-size: 9px&quot;&gt;NORMALIZE DATA&lt;/font&gt;" style="text;html=1;strokeColor=none;fillColor=none;align=center;verticalAlign=middle;whiteSpace=wrap;rounded=0;fontColor=#FEFAE0;" parent="1" vertex="1">
                    <mxGeometry x="549.4200000000001" y="435" width="134" height="20" as="geometry"/>
                </mxCell>
                <mxCell id="9Cxg7NkrZJupRny38_UN-56" value="&lt;span style=&quot;color: rgb(255 , 255 , 255) ; font-family: &amp;#34;helvetica&amp;#34; ; font-size: 12px ; font-style: normal ; font-weight: 400 ; letter-spacing: normal ; text-align: center ; text-indent: 0px ; text-transform: none ; word-spacing: 0px ; background-color: rgb(42 , 42 , 42) ; display: inline ; float: none&quot;&gt;DATA SOURCE / DATA PRODUCERS&lt;/span&gt;" style="text;whiteSpace=wrap;html=1;fontColor=#FEFAE0;rounded=0;" parent="1" vertex="1">
                    <mxGeometry x="183.69" y="117.5" width="212" height="30" as="geometry"/>
                </mxCell>
                <mxCell id="kACZH9-kuLG_nCIap0BK-7" value="&lt;font style=&quot;font-size: 10px&quot;&gt;&amp;nbsp; &amp;nbsp; CONSUME / VISUALIZE&lt;/font&gt;" style="shape=step;perimeter=stepPerimeter;whiteSpace=wrap;html=1;fixedSize=1;labelBackgroundColor=none;fillColor=#BC6C25;strokeColor=#DDA15E;fontColor=#FEFAE0;rounded=0;" parent="1" vertex="1">
                    <mxGeometry x="600.92" y="50" width="150" height="40" as="geometry"/>
                </mxCell>
                <mxCell id="kACZH9-kuLG_nCIap0BK-8" value="&lt;font style=&quot;font-size: 9px&quot;&gt;ANALYZE&lt;/font&gt;" style="shape=step;perimeter=stepPerimeter;whiteSpace=wrap;html=1;fixedSize=1;labelBackgroundColor=none;fillColor=#BC6C25;strokeColor=#DDA15E;fontColor=#FEFAE0;rounded=0;" parent="1" vertex="1">
                    <mxGeometry x="450.92" y="50" width="150" height="40" as="geometry"/>
                </mxCell>
                <mxCell id="kACZH9-kuLG_nCIap0BK-11" value="&lt;font style=&quot;font-size: 9px&quot;&gt;COLLECT&lt;/font&gt;" style="shape=step;perimeter=stepPerimeter;whiteSpace=wrap;html=1;fixedSize=1;labelBackgroundColor=none;fillColor=#BC6C25;strokeColor=#DDA15E;fontColor=#FEFAE0;rounded=0;" parent="1" vertex="1">
                    <mxGeometry x="229.92000000000002" y="50" width="150" height="40" as="geometry"/>
                </mxCell>
                <mxCell id="kACZH9-kuLG_nCIap0BK-12" value="&lt;br&gt;ETL" style="sketch=0;html=1;aspect=fixed;strokeColor=none;shadow=0;align=center;verticalAlign=top;fillColor=#BC6C25;shape=mxgraph.gcp2.arrows_system;labelBackgroundColor=none;fontColor=#FEFAE0;rounded=0;" parent="1" vertex="1">
                    <mxGeometry x="386.18999999999994" y="40" width="63.16" height="60" as="geometry"/>
                </mxCell>
                <mxCell id="kACZH9-kuLG_nCIap0BK-13" value="&lt;b&gt;&lt;u&gt;&lt;i&gt;PATTERN / PIPELINE:&lt;/i&gt;&lt;/u&gt;&lt;/b&gt;" style="text;html=1;strokeColor=none;fillColor=none;align=center;verticalAlign=middle;whiteSpace=wrap;rounded=0;labelBackgroundColor=none;fontColor=#FEFAE0;" parent="1" vertex="1">
                    <mxGeometry x="99.00000000000001" y="60" width="130.92" height="20" as="geometry"/>
                </mxCell>
                <mxCell id="kACZH9-kuLG_nCIap0BK-20" value="&lt;font color=&quot;#ffffff&quot;&gt;Kinesis Data Streams&lt;/font&gt;" style="sketch=0;points=[[0,0,0],[0.25,0,0],[0.5,0,0],[0.75,0,0],[1,0,0],[0,1,0],[0.25,1,0],[0.5,1,0],[0.75,1,0],[1,1,0],[0,0.25,0],[0,0.5,0],[0,0.75,0],[1,0.25,0],[1,0.5,0],[1,0.75,0]];outlineConnect=0;fontColor=#FEFAE0;gradientDirection=north;fillColor=#BC6C25;strokeColor=#DDA15E;dashed=0;verticalLabelPosition=bottom;verticalAlign=top;align=center;html=1;fontSize=12;fontStyle=0;aspect=fixed;shape=mxgraph.aws4.resourceIcon;resIcon=mxgraph.aws4.kinesis_data_streams;labelBackgroundColor=none;rounded=0;" parent="1" vertex="1">
                    <mxGeometry x="322.19" y="231" width="78" height="78" as="geometry"/>
                </mxCell>
                <mxCell id="kACZH9-kuLG_nCIap0BK-38" value="&lt;span style=&quot;color: rgb(240 , 240 , 240) ; font-family: &amp;#34;helvetica&amp;#34; ; font-size: 12px ; font-style: normal ; font-weight: 400 ; letter-spacing: normal ; text-align: center ; text-indent: 0px ; text-transform: none ; word-spacing: 0px ; display: inline ; float: none&quot;&gt;Extract, Transform, Load&lt;/span&gt;" style="text;whiteSpace=wrap;html=1;fontColor=#FEFAE0;rounded=0;" parent="1" vertex="1">
                    <mxGeometry x="355" y="10" width="140" height="30" as="geometry"/>
                </mxCell>
                <mxCell id="SVoFsf67C7dcWADC0aFI-3" value="ETL" style="text;whiteSpace=wrap;html=1;fontColor=#FEFAE0;align=center;rounded=0;" parent="1" vertex="1">
                    <mxGeometry x="584.11" y="197.5" width="69" height="30" as="geometry"/>
                </mxCell>
                <mxCell id="SVoFsf67C7dcWADC0aFI-14" style="edgeStyle=orthogonalEdgeStyle;rounded=0;orthogonalLoop=1;jettySize=auto;html=1;exitX=1;exitY=0.5;exitDx=0;exitDy=0;exitPerimeter=0;strokeWidth=3;labelBackgroundColor=#283618;strokeColor=#DDA15E;fontColor=#FEFAE0;" parent="1" source="SVoFsf67C7dcWADC0aFI-4" target="9Cxg7NkrZJupRny38_UN-42" edge="1">
                    <mxGeometry relative="1" as="geometry"/>
                </mxCell>
                <mxCell id="SVoFsf67C7dcWADC0aFI-4" value="&lt;font color=&quot;#f0f0f0&quot;&gt;Event Publisher&lt;br&gt;&lt;/font&gt;" style="sketch=0;points=[[0,0,0],[0.25,0,0],[0.5,0,0],[0.75,0,0],[1,0,0],[0,1,0],[0.25,1,0],[0.5,1,0],[0.75,1,0],[1,1,0],[0,0.25,0],[0,0.5,0],[0,0.75,0],[1,0.25,0],[1,0.5,0],[1,0.75,0]];outlineConnect=0;fontColor=#FEFAE0;gradientDirection=north;fillColor=#BC6C25;strokeColor=#DDA15E;dashed=0;verticalLabelPosition=bottom;verticalAlign=top;align=center;html=1;fontSize=12;fontStyle=0;aspect=fixed;shape=mxgraph.aws4.resourceIcon;resIcon=mxgraph.aws4.lambda;rounded=0;" parent="1" vertex="1">
                    <mxGeometry x="113.00000000000003" y="231" width="78" height="78" as="geometry"/>
                </mxCell>
                <mxCell id="SVoFsf67C7dcWADC0aFI-24" style="edgeStyle=orthogonalEdgeStyle;rounded=0;orthogonalLoop=1;jettySize=auto;html=1;strokeWidth=3;labelBackgroundColor=#283618;strokeColor=#DDA15E;fontColor=#FEFAE0;" parent="1" source="SVoFsf67C7dcWADC0aFI-7" edge="1">
                    <mxGeometry relative="1" as="geometry">
                        <mxPoint x="149" y="530" as="targetPoint"/>
                        <mxPoint x="152" y="555" as="sourcePoint"/>
                        <Array as="points">
                            <mxPoint x="149" y="565"/>
                            <mxPoint x="149" y="565"/>
                        </Array>
                    </mxGeometry>
                </mxCell>
                <mxCell id="SVoFsf67C7dcWADC0aFI-7" value="&lt;font color=&quot;#ffffff&quot;&gt;Event Schedule&lt;/font&gt;" style="sketch=0;outlineConnect=0;fontColor=#FEFAE0;fillColor=#BC6C25;strokeColor=none;dashed=0;verticalLabelPosition=bottom;verticalAlign=top;align=center;html=1;fontSize=12;fontStyle=0;aspect=fixed;pointerEvents=1;shape=mxgraph.aws4.event_time_based;rounded=0;" parent="1" vertex="1">
                    <mxGeometry x="113" y="585" width="78" height="78" as="geometry"/>
                </mxCell>
                <mxCell id="SVoFsf67C7dcWADC0aFI-20" style="edgeStyle=orthogonalEdgeStyle;rounded=0;orthogonalLoop=1;jettySize=auto;html=1;strokeWidth=3;labelBackgroundColor=#283618;strokeColor=#DDA15E;fontColor=#FEFAE0;" parent="1" edge="1">
                    <mxGeometry relative="1" as="geometry">
                        <mxPoint x="152" y="340" as="targetPoint"/>
                        <mxPoint x="152" y="400" as="sourcePoint"/>
                    </mxGeometry>
                </mxCell>
                <mxCell id="SVoFsf67C7dcWADC0aFI-19" value="&lt;font color=&quot;#f0f0f0&quot;&gt;Metric Search Engine&lt;br&gt;&lt;/font&gt;" style="sketch=0;points=[[0,0,0],[0.25,0,0],[0.5,0,0],[0.75,0,0],[1,0,0],[0,1,0],[0.25,1,0],[0.5,1,0],[0.75,1,0],[1,1,0],[0,0.25,0],[0,0.5,0],[0,0.75,0],[1,0.25,0],[1,0.5,0],[1,0.75,0]];outlineConnect=0;fontColor=#FEFAE0;gradientDirection=north;fillColor=#BC6C25;strokeColor=#DDA15E;dashed=0;verticalLabelPosition=bottom;verticalAlign=top;align=center;html=1;fontSize=12;fontStyle=0;aspect=fixed;shape=mxgraph.aws4.resourceIcon;resIcon=mxgraph.aws4.lambda;rounded=0;" parent="1" vertex="1">
                    <mxGeometry x="113" y="408" width="78" height="78" as="geometry"/>
                </mxCell>
                <mxCell id="SVoFsf67C7dcWADC0aFI-28" value="&lt;font color=&quot;#ff0000&quot; style=&quot;font-size: 9px&quot;&gt;TARGET&lt;/font&gt;" style="text;html=1;strokeColor=none;fillColor=none;align=center;verticalAlign=middle;whiteSpace=wrap;rounded=0;fontColor=#FEFAE0;" parent="1" vertex="1">
                    <mxGeometry x="292.92" y="435" width="134" height="20" as="geometry"/>
                </mxCell>
                <mxCell id="ulbjj01cTfKF5SZwPGl_-1" value="Data Metrics Bucket" style="sketch=0;points=[[0,0,0],[0.25,0,0],[0.5,0,0],[0.75,0,0],[1,0,0],[0,1,0],[0.25,1,0],[0.5,1,0],[0.75,1,0],[1,1,0],[0,0.25,0],[0,0.5,0],[0,0.75,0],[1,0.25,0],[1,0.5,0],[1,0.75,0]];outlineConnect=0;fontColor=#FEFAE0;gradientDirection=north;fillColor=#BC6C25;strokeColor=#DDA15E;dashed=0;verticalLabelPosition=bottom;verticalAlign=top;align=center;html=1;fontSize=12;fontStyle=0;aspect=fixed;shape=mxgraph.aws4.resourceIcon;resIcon=mxgraph.aws4.s3;rounded=0;labelPosition=center;" parent="1" vertex="1">
                    <mxGeometry x="579.61" y="491" width="78" height="78" as="geometry"/>
                </mxCell>
            </root>
        </mxGraphModel>
    </diagram>
</mxfile>